<svg width="296" height="176" viewBox="0 0 296 176" fill="none" xmlns="http://www.w3.org/2000/svg">
<g clip-path="url(#clip0_1882_26582)" filter="url(#filter0_ddd_1882_26582)">
<path d="M217.7 6C218.627 10.5645 222.662 14 227.5 14C232.338 14 236.373 10.5645 237.3 6H272C280.837 6 288 13.1634 288 22V150C288 158.837 280.837 166 272 166H237.3C236.373 161.436 232.338 158 227.5 158C222.662 158 218.627 161.436 217.7 166H24C15.1634 166 8 158.837 8 150V22C8 13.1634 15.1634 6 24 6H217.7Z" fill="white"/>
<line x1="228" y1="24" x2="228" y2="147" stroke="#37383C" stroke-opacity="0.28" stroke-dasharray="4 4"/>
</g>
<defs>
<filter id="filter0_ddd_1882_26582" x="0" y="0" width="296" height="176" filterUnits="userSpaceOnUse" color-interpolation-filters="sRGB">
<feFlood flood-opacity="0" result="BackgroundImageFix"/>
<feColorMatrix in="SourceAlpha" type="matrix" values="0 0 0 0 0 0 0 0 0 0 0 0 0 0 0 0 0 0 127 0" result="hardAlpha"/>
<feOffset/>
<feGaussianBlur stdDeviation="0.5"/>
<feComposite in2="hardAlpha" operator="out"/>
<feColorMatrix type="matrix" values="0 0 0 0 0 0 0 0 0 0 0 0 0 0 0 0 0 0 0.08 0"/>
<feBlend mode="normal" in2="BackgroundImageFix" result="effect1_dropShadow_1882_26582"/>
<feColorMatrix in="SourceAlpha" type="matrix" values="0 0 0 0 0 0 0 0 0 0 0 0 0 0 0 0 0 0 127 0" result="hardAlpha"/>
<feOffset dy="1"/>
<feGaussianBlur stdDeviation="2"/>
<feComposite in2="hardAlpha" operator="out"/>
<feColorMatrix type="matrix" values="0 0 0 0 0 0 0 0 0 0 0 0 0 0 0 0 0 0 0.08 0"/>
<feBlend mode="normal" in2="effect1_dropShadow_1882_26582" result="effect2_dropShadow_1882_26582"/>
<feColorMatrix in="SourceAlpha" type="matrix" values="0 0 0 0 0 0 0 0 0 0 0 0 0 0 0 0 0 0 127 0" result="hardAlpha"/>
<feOffset dy="2"/>
<feGaussianBlur stdDeviation="4"/>
<feComposite in2="hardAlpha" operator="out"/>
<feColorMatrix type="matrix" values="0 0 0 0 0 0 0 0 0 0 0 0 0 0 0 0 0 0 0.12 0"/>
<feBlend mode="normal" in2="effect2_dropShadow_1882_26582" result="effect3_dropShadow_1882_26582"/>
<feBlend mode="normal" in="SourceGraphic" in2="effect3_dropShadow_1882_26582" result="shape"/>
</filter>
<clipPath id="clip0_1882_26582">
<rect width="280" height="160" fill="white" transform="translate(8 6)"/>
</clipPath>
</defs>
</svg>
