<svg xmlns="http://www.w3.org/2000/svg" width="17" height="18" viewBox="0 0 17 18" fill="none">
  <path d="M9.20711 7.29289C8.81658 7.68342 8.18342 7.68342 7.79289 7.29289L2.20711 1.70711C1.57714 1.07714 2.02331 1.64919e-07 2.91421 2.42804e-07L14.0858 1.21945e-06C14.9767 1.29734e-06 15.4229 1.07714 14.7929 1.70711L9.20711 7.29289Z" fill="#DCDCDC"/>
  <path d="M9.20711 12.2929C8.81658 12.6834 8.18342 12.6834 7.79289 12.2929L2.20711 6.7071C1.57714 6.07714 2.02331 5 2.91421 5L14.0858 5C14.9767 5 15.4229 6.07714 14.7929 6.70711L9.20711 12.2929Z" fill="#B7B7B8"/>
  <path d="M9.20711 17.2929C8.81658 17.6834 8.18342 17.6834 7.79289 17.2929L2.20711 11.7071C1.57714 11.0771 2.02331 10 2.91421 10L14.0858 10C14.9767 10 15.4229 11.0771 14.7929 11.7071L9.20711 17.2929Z" fill="#686868"/>
</svg>