<svg width="100%" height="20" viewBox="0 0 20 20" fill="none" xmlns="http://www.w3.org/2000/svg">
<path d="M5.57315 3.64527C6.62106 2.40649 8.14555 1.75 9.99991 1.75C11.8543 1.75 13.3788 2.40649 14.4267 3.64527C15.4601 4.86695 15.9582 6.56925 15.9582 8.54167L15.9582 9.16667C15.9582 11.2209 16.5276 12.4373 17.3385 13.2234C17.6565 13.5316 17.6895 13.9581 17.5758 14.2719C17.4602 14.5911 17.1435 14.9167 16.6669 14.9167H3.3329C2.85634 14.9167 2.53959 14.5911 2.42401 14.2719C2.31035 13.9581 2.34336 13.5316 2.66131 13.2234C3.47224 12.4373 4.0416 11.2209 4.0416 9.16667L4.0416 8.54167C4.0416 6.56925 4.53971 4.86695 5.57315 3.64527Z" fill="currentColor" fill-opacity="0.28"/>
<path d="M7.58326 17.4999C7.58326 17.0857 7.91904 16.7499 8.33325 16.7499H11.6666C12.0808 16.7499 12.4166 17.0857 12.4166 17.4999C12.4166 17.9141 12.0808 18.2499 11.6666 18.2499H8.33325C7.91904 18.2499 7.58326 17.9141 7.58326 17.4999Z" fill="currentColor" fill-opacity="0.28"/>
</svg>
