<svg width="100%" height="20" viewBox="0 0 20 20" fill="none" xmlns="http://www.w3.org/2000/svg">
<path d="M17.7338 15.3533C17.444 16.0229 17.1009 16.6393 16.7034 17.206C16.1615 17.9786 15.7178 18.5133 15.3759 18.8103C14.8459 19.2977 14.278 19.5474 13.6699 19.5616C13.2334 19.5616 12.7069 19.4373 12.094 19.1853C11.4792 18.9345 10.9141 18.8103 10.3975 18.8103C9.85563 18.8103 9.2745 18.9345 8.6529 19.1853C8.03036 19.4373 7.52884 19.5687 7.1454 19.5817C6.56226 19.6065 5.98101 19.3498 5.40082 18.8103C5.03051 18.4873 4.56733 17.9336 4.01246 17.1492C3.41713 16.3116 2.92768 15.3403 2.54424 14.2329C2.13359 13.0368 1.92773 11.8786 1.92773 10.7572C1.92773 9.47276 2.20529 8.36491 2.76122 7.43654C3.19814 6.69084 3.77939 6.10261 4.50687 5.67078C5.23436 5.23895 6.0204 5.0189 6.86691 5.00482C7.33009 5.00482 7.93749 5.14809 8.6923 5.42967C9.44498 5.71219 9.92827 5.85546 10.1402 5.85546C10.2986 5.85546 10.8355 5.68793 11.7456 5.35395C12.6063 5.04422 13.3327 4.91597 13.9278 4.96649C15.5404 5.09663 16.7519 5.7323 17.5576 6.87753C16.1154 7.75136 15.402 8.97527 15.4162 10.5454C15.4292 11.7683 15.8728 12.786 16.7448 13.5941C17.1399 13.9691 17.5812 14.259 18.0722 14.4648C17.9657 14.7736 17.8533 15.0694 17.7338 15.3533ZM14.0355 0.800114C14.0355 1.75867 13.6853 2.65366 12.9873 3.48206C12.1449 4.46687 11.126 5.03593 10.0211 4.94614C10.0071 4.83114 9.9989 4.71011 9.9989 4.58293C9.9989 3.66272 10.3995 2.67792 11.1109 1.8727C11.4661 1.46501 11.9178 1.12602 12.4655 0.8556C13.0121 0.589216 13.5291 0.441899 14.0154 0.416672C14.0296 0.544815 14.0355 0.672967 14.0355 0.800102V0.800114Z" fill="white"/>
</svg>
