<svg width="100%" height="12" viewBox="0 0 12 12" fill="none" xmlns="http://www.w3.org/2000/svg">
<path d="M6.93128 7.35374C6.61236 7.74626 6.4529 7.94252 6.26092 8.01378C6.09255 8.07627 5.90735 8.07627 5.73898 8.01378C5.547 7.94252 5.38754 7.74626 5.06861 7.35374L4.33978 6.45671C3.83151 5.83115 3.57738 5.51837 3.5757 5.25479C3.57424 5.02559 3.67766 4.8083 3.85646 4.66491C4.06209 4.5 4.4651 4.5 5.27112 4.5H6.72878C7.5348 4.5 7.9378 4.5 8.14343 4.66491C8.32224 4.8083 8.42566 5.02559 8.4242 5.25479C8.42252 5.51837 8.16838 5.83115 7.66012 6.45671L6.93128 7.35374Z" fill="currentColor"/>
</svg>
