<svg width="100%" height="16" viewBox="0 0 16 16" fill="none" xmlns="http://www.w3.org/2000/svg">
<path d="M8.00008 1.56632C4.44706 1.56632 1.56677 4.44663 1.56677 7.99966C1.56677 11.5527 4.44706 14.433 8.00008 14.433C9.02564 14.433 9.99657 14.1926 10.8582 13.7647L12.0665 14.0942C12.3399 14.1688 12.5838 14.2354 12.7842 14.2707C12.9873 14.3066 13.2446 14.331 13.5017 14.2329C13.8386 14.1042 14.1046 13.8382 14.2333 13.5013C14.3314 13.2442 14.307 12.9869 14.2711 12.7838C14.2358 12.5834 14.1692 12.3395 14.0946 12.0661L13.7651 10.8578C14.193 9.99615 14.4334 9.02522 14.4334 7.99966C14.4334 4.44663 11.5531 1.56632 8.00008 1.56632Z" fill="#FF9200"/>
</svg>
