<svg width="100%" height="16" viewBox="0 0 16 16" fill="none" xmlns="http://www.w3.org/2000/svg">
<rect width="16" height="16" fill="#FEECFB"/>
<path fill-rule="evenodd" clip-rule="evenodd" d="M3.91117 1.39941H8.08893C8.3499 1.3994 8.58094 1.39939 8.77236 1.41503C8.97621 1.43169 9.18745 1.46903 9.39308 1.57381C9.69414 1.7272 9.93891 1.97197 10.0923 2.27303C10.1971 2.47867 10.2344 2.6899 10.2511 2.89376C10.2667 3.08518 10.2667 3.31615 10.2667 3.57713L10.2667 6.73275L12.0889 6.73275C12.3499 6.73274 12.5809 6.73273 12.7723 6.74837C12.9762 6.76502 13.1874 6.80236 13.3931 6.90714C13.6941 7.06054 13.9389 7.30531 14.0923 7.60637C14.1971 7.812 14.2344 8.02324 14.2511 8.22709C14.2667 8.41853 14.2667 8.64952 14.2667 8.91053V14.5994H10.9334V11.8328C10.9334 11.5014 10.6647 11.2328 10.3334 11.2328C10.002 11.2328 9.73337 11.5014 9.73337 11.8328V14.5994H9.68081L9.6667 14.5996L9.65258 14.5994H1.7334L1.7334 3.57719C1.73339 3.31621 1.73338 3.08518 1.74902 2.89376C1.76567 2.6899 1.80301 2.47867 1.90779 2.27303C2.06119 1.97197 2.30595 1.7272 2.60701 1.57381C2.81265 1.46903 3.02388 1.43169 3.22774 1.41503C3.41916 1.39939 3.65019 1.3994 3.91117 1.39941ZM4.06671 7.33282C4.06671 7.00144 4.33534 6.73282 4.66671 6.73282H7.33336C7.66473 6.73282 7.93336 7.00144 7.93336 7.33282C7.93336 7.66419 7.66473 7.93282 7.33336 7.93282H4.66671C4.33534 7.93282 4.06671 7.66419 4.06671 7.33282ZM4.06671 4.66615C4.06671 4.33478 4.33534 4.06615 4.66671 4.06615H7.33336C7.66473 4.06615 7.93336 4.33478 7.93336 4.66615C7.93336 4.99752 7.66473 5.26615 7.33336 5.26615H4.66671C4.33534 5.26615 4.06671 4.99752 4.06671 4.66615Z" fill="#E846CD"/>
</svg>
