<svg width="100$" height="44" viewBox="0 0 44 44" fill="none" xmlns="http://www.w3.org/2000/svg">
<mask id="mask0_931_38766" style="mask-type:alpha" maskUnits="userSpaceOnUse" x="0" y="0" width="44" height="44">
<rect width="44" height="44" fill="currentColor"/>
</mask>
<g mask="url(#mask0_931_38766)">
<path d="M30.25 34.8327C31.5333 34.8327 32.6181 34.3896 33.5042 33.5035C34.3903 32.6174 34.8333 31.5327 34.8333 30.2493C34.8333 28.966 34.3903 27.8813 33.5042 26.9952C32.6181 26.1091 31.5333 25.666 30.25 25.666C28.9667 25.666 27.8819 26.1091 26.9958 26.9952C26.1097 27.8813 25.6667 28.966 25.6667 30.2493C25.6667 31.5327 26.1097 32.6174 26.9958 33.5035C27.8819 34.3896 28.9667 34.8327 30.25 34.8327ZM40.8833 40.8827C40.5472 41.2188 40.1194 41.3869 39.6 41.3869C39.0806 41.3869 38.6528 41.2188 38.3167 40.8827L34.65 37.216C34.0083 37.6438 33.3132 37.9646 32.5646 38.1785C31.816 38.3924 31.0444 38.4994 30.25 38.4994C27.9583 38.4994 26.0104 37.6973 24.4062 36.0931C22.8021 34.4889 22 32.541 22 30.2493C22 27.9577 22.8021 26.0098 24.4062 24.4056C26.0104 22.8014 27.9583 21.9993 30.25 21.9993C32.5417 21.9993 34.4896 22.8014 36.0937 24.4056C37.6979 26.0098 38.5 27.9577 38.5 30.2493C38.5 31.0438 38.3931 31.8153 38.1792 32.5639C37.9653 33.3125 37.6444 34.0077 37.2167 34.6493L40.8833 38.316C41.2194 38.6521 41.3875 39.0799 41.3875 39.5993C41.3875 40.1188 41.2194 40.5466 40.8833 40.8827ZM9.16667 40.3327C8.15833 40.3327 7.29514 39.9737 6.57708 39.2556C5.85903 38.5375 5.5 37.6744 5.5 36.666V7.33268C5.5 6.32435 5.85903 5.46115 6.57708 4.7431C7.29514 4.02504 8.15833 3.66602 9.16667 3.66602H22.3208C22.8097 3.66602 23.2757 3.75768 23.7188 3.94102C24.1618 4.12435 24.5514 4.38407 24.8875 4.72018L33.7792 13.6118C34.1153 13.948 34.375 14.3375 34.5583 14.7806C34.7417 15.2237 34.8333 15.6896 34.8333 16.1785V17.0035C34.8333 17.5535 34.6118 17.9966 34.1687 18.3327C33.7257 18.6688 33.2292 18.7605 32.6792 18.6077C32.2819 18.516 31.8847 18.4473 31.4875 18.4014C31.0903 18.3556 30.6778 18.3327 30.25 18.3327C28.5389 18.3327 26.9424 18.6535 25.4604 19.2952C23.9785 19.9368 22.7028 20.8382 21.6333 21.9993H14.6667C14.1472 21.9993 13.7118 22.175 13.3604 22.5264C13.009 22.8778 12.8333 23.3132 12.8333 23.8327C12.8333 24.3521 13.009 24.7875 13.3604 25.1389C13.7118 25.4903 14.1472 25.666 14.6667 25.666H19.25C19.0056 26.2466 18.8146 26.8424 18.6771 27.4535C18.5396 28.0646 18.4403 28.691 18.3792 29.3327H14.6667C14.1472 29.3327 13.7118 29.5084 13.3604 29.8598C13.009 30.2112 12.8333 30.6466 12.8333 31.166C12.8333 31.6855 13.009 32.1209 13.3604 32.4723C13.7118 32.8237 14.1472 32.9993 14.6667 32.9993H18.6542C18.8681 33.9466 19.1889 34.8403 19.6167 35.6806C20.0444 36.5209 20.5639 37.2924 21.175 37.9952C21.6028 38.4535 21.7021 38.9577 21.4729 39.5077C21.2438 40.0577 20.8542 40.3327 20.3042 40.3327H9.16667ZM22 7.33268V14.666C22 15.1855 22.1757 15.6209 22.5271 15.9723C22.8785 16.3237 23.3139 16.4993 23.8333 16.4993H31.1667L22 7.33268Z" fill="#37383C" fill-opacity="0.16"/>
</g>
</svg>
