<svg xmlns="http://www.w3.org/2000/svg" width="100%" height="20" viewBox="0 0 57 20" fill="none">
  <g opacity="0.9">
    <path d="M56.145 12.8945H38.2764V10.3298H45.3607V9.40485H39.3905V2.11025C39.3905 1.61974 39.5026 1.26237 39.7269 1.03813C39.9511 0.813899 40.3085 0.701782 40.799 0.701782H55.0308V3.26645H42.8802V4.00222H54.8837V6.10441H42.8802V6.84018H55.241V9.40485H49.0606V10.3298H56.145V12.8945ZM55.1359 19.9999H51.6463V16.237H39.2854V13.6302H55.1359V19.9999Z" fill="#303134"/>
    <path d="M27.9071 15.9636C27.9071 16.8746 27.7249 17.5122 27.3605 17.8766C26.9961 18.241 26.3585 18.4232 25.4475 18.4232H19.6875V2.27835C19.6875 1.78784 19.7996 1.43046 20.0239 1.20623C20.2481 0.981997 20.6055 0.86988 21.096 0.86988H27.9071V15.9636ZM36.5681 19.9367H33.4358V10.4979H32.1114V19.9367H29.0002V0.764771H32.1114V7.26054H33.4358V0.764771H36.5681V19.9367ZM24.7538 15.6062V3.68682H22.8408V15.6062H24.7538Z" fill="#303134"/>
    <path d="M5.74401 19.9998C5.12737 19.9998 4.55978 19.9017 4.04124 19.7055C3.5227 19.5093 3.07423 19.236 2.69584 18.8856C2.31744 18.5353 2.02314 18.1148 1.81292 17.6243C1.6027 17.1338 1.49759 16.5873 1.49759 15.9846C1.49759 15.382 1.6027 14.8354 1.81292 14.3449C2.02314 13.8544 2.31744 13.434 2.69584 13.0836C3.07423 12.7332 3.5227 12.46 4.04124 12.2638C4.55978 12.0675 5.12737 11.9694 5.74401 11.9694H13.2068C13.8234 11.9694 14.391 12.0675 14.9096 12.2638C15.4281 12.46 15.8766 12.7332 16.255 13.0836C16.6334 13.434 16.9277 13.8544 17.1379 14.3449C17.3481 14.8354 17.4532 15.382 17.4532 15.9846C17.4532 16.5873 17.3481 17.1338 17.1379 17.6243C16.9277 18.1148 16.6334 18.5353 16.255 18.8856C15.8766 19.236 15.4281 19.5093 14.9096 19.7055C14.391 19.9017 13.8234 19.9998 13.2068 19.9998H5.74401ZM9.57 10.9604H5.99628L7.1735 4.12827C7.20153 3.93207 7.18752 3.80594 7.13146 3.74988C7.0754 3.67981 6.94927 3.64477 6.75306 3.64477H0.677734V0.86988H10.1796C10.53 0.86988 10.7753 0.960975 10.9154 1.14316C11.0555 1.31134 11.0976 1.5566 11.0415 1.87893L9.57 10.9604ZM16.9907 11.4859H13.5011V9.88827H11.0836V7.11338H13.5011V5.62083H11.3148V2.84594H13.5011V0.764771H16.9907V11.4859ZM12.1136 17.2249C13.3469 17.2249 13.9636 16.8115 13.9636 15.9846C13.9636 15.1578 13.3469 14.7443 12.1136 14.7443H6.81613C5.59686 14.7443 4.98722 15.1578 4.98722 15.9846C4.98722 16.4191 5.14138 16.7344 5.44971 16.9306C5.77204 17.1268 6.22752 17.2249 6.81613 17.2249H12.1136Z" fill="#303134"/>
  </g>
</svg>