<svg width="100%" height="25" viewBox="0 0 24 25" fill="none" xmlns="http://www.w3.org/2000/svg">
<path d="M5.24975 14.25C6.21625 14.25 6.99975 13.4665 6.99975 12.5C6.99975 11.5335 6.21625 10.75 5.24975 10.75C4.28326 10.75 3.49976 11.5335 3.49976 12.5C3.49976 13.4665 4.28326 14.25 5.24975 14.25Z" fill="currentColor"/>
<path d="M13.7497 12.5C13.7497 13.4665 12.9662 14.25 11.9997 14.25C11.0332 14.25 10.2497 13.4665 10.2497 12.5C10.2497 11.5335 11.0332 10.75 11.9997 10.75C12.9662 10.75 13.7497 11.5335 13.7497 12.5Z" fill="currentColor"/>
<path d="M20.4997 12.5C20.4997 13.4665 19.7162 14.25 18.7497 14.25C17.7832 14.25 16.9997 13.4665 16.9997 12.5C16.9997 11.5335 17.7832 10.75 18.7497 10.75C19.7162 10.75 20.4997 11.5335 20.4997 12.5Z" fill="currentColor"/>
</svg>
