<svg xmlns="http://www.w3.org/2000/svg" width="currentWidth" height="currentHeight" viewBox="0 0 25 24" fill="none">
  <path d="M6.84472 4.25C6.84472 3.55964 6.28507 3 5.59472 3C4.90437 3 4.34473 3.55964 4.34473 4.25V19.7517C4.34473 20.4421 4.90437 21.0017 5.59472 21.0017C6.28507 21.0017 6.84472 20.4421 6.84472 19.7517V16.0422C8.88862 14.3384 10.9864 15.1047 13.0955 15.8752C15.2534 16.6635 17.4231 17.4561 19.5594 15.6125C20.4121 14.8789 20.8923 13.6879 20.8923 12.4516V5.40811C20.8923 4.57649 20.023 4.22488 19.3773 4.73661C17.0788 6.55816 14.9374 5.7441 12.846 4.94902C10.8313 4.18308 8.86283 3.43475 6.84472 5.07715V4.25Z" fill="currentColor"/>
</svg>