<svg xmlns="http://www.w3.org/2000/svg" width="25" height="24" viewBox="0 0 25 24" fill="none">
  <path d="M12.1382 2.27638C12.375 2.21309 12.6243 2.21309 12.8611 2.27638C13.1419 2.35141 13.3747 2.53321 13.4973 2.62896L13.5323 2.65616L20.3655 7.88144C20.7523 8.17667 21.0785 8.42563 21.3213 8.74993C21.5346 9.03488 21.6936 9.35667 21.7904 9.6992C21.9005 10.089 21.9002 10.4994 21.8997 10.986L21.8997 17.3349C21.8997 17.8647 21.8997 18.3159 21.8694 18.6864C21.8376 19.0755 21.768 19.4541 21.5836 19.816C21.3055 20.3617 20.8619 20.8054 20.3162 21.0834C19.9543 21.2678 19.5757 21.3374 19.1865 21.3692C18.8161 21.3995 18.365 21.3995 17.8351 21.3995H13.4V13.9995C13.4 13.5025 12.997 13.0995 12.5 13.0995C12.0029 13.0995 11.6 13.5025 11.6 13.9995V21.3995H7.1643C6.63445 21.3995 6.18325 21.3995 5.81283 21.3692C5.42367 21.3374 5.04508 21.2678 4.68314 21.0834C4.13748 20.8054 3.69383 20.3617 3.4158 19.816C3.23139 19.4541 3.16176 19.0755 3.12996 18.6864C3.0997 18.3159 3.09971 17.8647 3.09972 17.3349L3.09967 10.986C3.09922 10.4994 3.09884 10.089 3.20899 9.6992C3.30578 9.35667 3.4648 9.03488 3.6781 8.74993C3.92085 8.42563 4.24703 8.17667 4.63384 7.88144L11.467 2.65616L11.5021 2.62896C11.6247 2.5332 11.8575 2.35141 12.1382 2.27638Z" fill="currentColor"/>
</svg>