<svg xmlns="http://www.w3.org/2000/svg" width="currentWidth" height="currentHeight" viewBox="0 0 25 18" fill="none">
  <path d="M19.4876 4.14028C19.4876 6.06769 17.9246 7.63017 15.9965 7.63017C14.0684 7.63017 12.5054 6.06769 12.5054 4.14028C12.5054 2.21287 14.0684 0.650391 15.9965 0.650391C17.9246 0.650391 19.4876 2.21287 19.4876 4.14028Z" fill="currentColor"/>
  <path d="M11.0155 5.5133C11.0155 7.24026 9.61509 8.64024 7.88753 8.64024C6.15997 8.64024 4.7595 7.24026 4.7595 5.5133C4.7595 3.78633 6.15997 2.38636 7.88753 2.38636C9.61509 2.38636 11.0155 3.78633 11.0155 5.5133Z" fill="currentColor"/>
  <path d="M8.9212 10.2681C8.94913 10.2448 8.97706 10.2216 9.00034 10.2029C8.64192 10.1657 8.26953 10.1378 7.88319 10.1378C3.1446 10.1378 0.375 13.0833 0.375 15.8752C0.375 16.7593 0.966159 17.3456 1.84592 17.3456H6.65897C6.37503 16.8803 6.21677 16.3219 6.21677 15.703C6.21677 13.6975 7.19893 11.7152 8.91655 10.2634L8.9212 10.2681Z" fill="currentColor"/>
  <path d="M10.8853 10.5891C12.2259 9.79809 13.9435 9.3002 15.9963 9.3002V9.30485C21.2841 9.30485 24.3749 12.5853 24.3749 15.7076C24.3749 16.6941 23.7186 17.3502 22.7318 17.3502H9.26079C8.27397 17.3502 7.61765 16.6941 7.61765 15.7076C7.61765 13.7998 8.77669 11.8315 10.8853 10.5891Z" fill="currentColor"/>
</svg>