<svg xmlns="http://www.w3.org/2000/svg" width="25" height="24" viewBox="0 0 25 24" fill="none">
  <path fill-rule="evenodd" clip-rule="evenodd" d="M22.4999 12C22.4999 17.5228 18.0228 22 12.5 22C6.97714 22 2.5 17.5228 2.5 12C2.5 6.47715 6.97714 2 12.5 2C18.0228 2 22.4999 6.47715 22.4999 12ZM12.4998 12.0001C14.3408 12.0001 15.8332 10.5077 15.8332 8.66678C15.8332 6.82583 14.3408 5.33345 12.4998 5.33345C10.6589 5.33345 9.16652 6.82583 9.16652 8.66678C9.16652 10.5077 10.6589 12.0001 12.4998 12.0001ZM12.5 13.6666C9.77503 13.6666 7.3667 14.9791 5.84588 16.9999C7.3667 19.0207 9.77919 20.3332 12.5 20.3332C15.2208 20.3332 17.6333 19.0207 19.1542 16.9999C17.6333 14.9791 15.2208 13.6666 12.5 13.6666Z" fill="currentColor"/>
</svg>