<svg width="100%" height="24" viewBox="0 0 24 24" fill="none" xmlns="http://www.w3.org/2000/svg">
<path fill-rule="evenodd" clip-rule="evenodd" d="M12 2.60107C9.29386 2.60107 7.10006 4.79488 7.10006 7.50107C7.10006 10.2073 9.29386 12.4011 12 12.4011C14.7062 12.4011 16.9 10.2073 16.9 7.50107C16.9 4.79488 14.7062 2.60107 12 2.60107ZM8.90005 7.50107C8.90005 5.78899 10.288 4.40107 12 4.40107C13.7121 4.40107 15.1 5.78899 15.1 7.50107C15.1 9.21316 13.7121 10.6011 12 10.6011C10.288 10.6011 8.90005 9.21316 8.90005 7.50107Z" fill="currentColor"/>
<path fill-rule="evenodd" clip-rule="evenodd" d="M12 13.5995C9.68802 13.5995 7.53058 14.0521 5.91631 14.9216C4.30318 15.7905 3.09998 17.1657 3.09998 18.9995L3.09998 19.3272C3.09995 19.5139 3.09992 19.7039 3.11319 19.8663C3.12796 20.0471 3.16353 20.2713 3.27983 20.4996C3.43804 20.81 3.69047 21.0625 4.00096 21.2206C4.22921 21.3369 4.45346 21.3725 4.63419 21.3872C4.79663 21.4005 4.98666 21.4005 5.17331 21.4004L18.8268 21.3996C19.0135 21.3996 19.2035 21.3997 19.3659 21.3864C19.5466 21.3716 19.7709 21.336 19.9991 21.2197C20.3095 21.0615 20.5619 20.8091 20.7201 20.4986C20.8364 20.2704 20.872 20.0462 20.8867 19.8655C20.9 19.703 20.9 19.513 20.8999 19.3264L20.8999 18.9995C20.8999 17.1657 19.6967 15.7905 18.0836 14.9216C16.4693 14.0521 14.3119 13.5995 12 13.5995ZM4.89998 18.9995C4.89998 18.0719 5.48763 17.1971 6.76993 16.5063C8.05107 15.8162 9.89362 15.3995 12 15.3995C14.1063 15.3995 15.9488 15.8162 17.23 16.5063C18.5123 17.1971 19.0999 18.0719 19.0999 18.9995L19.0981 19.5978L4.90179 19.5986L4.89998 18.9995Z" fill="currentColor"/>
</svg>
