<svg width="100%" height="16" viewBox="0 0 17 16" fill="none" xmlns="http://www.w3.org/2000/svg">
<path d="M9.07419 0.938504C8.71328 0.754874 8.28632 0.754874 7.9254 0.938504C7.63576 1.08587 7.46946 1.35929 7.35856 1.57095C7.24147 1.79444 7.11704 2.09361 6.97169 2.44313L6.16816 4.37506C6.11995 4.49096 6.09387 4.55297 6.07204 4.59749C6.06546 4.6109 6.06092 4.61919 6.05831 4.62373C6.05429 4.62749 6.04983 4.63073 6.04502 4.63339C6.03989 4.63447 6.03061 4.63623 6.01581 4.63834C5.96672 4.64535 5.89969 4.65099 5.77457 4.66102L3.68892 4.82822C3.31159 4.85846 2.9886 4.88434 2.73986 4.92664C2.50428 4.96671 2.19286 5.04038 1.9632 5.27031C1.67703 5.55682 1.54509 5.96288 1.60821 6.36288C1.65886 6.68388 1.8675 6.92654 2.03453 7.09742C2.2109 7.27784 2.45699 7.48863 2.74448 7.73488L4.33353 9.09608C4.42886 9.17774 4.47978 9.2217 4.51538 9.25622C4.5261 9.26663 4.53258 9.2735 4.53609 9.27739C4.53842 9.28237 4.54013 9.28762 4.54117 9.29302C4.54062 9.29823 4.53942 9.3076 4.53685 9.32232C4.52835 9.37117 4.513 9.43667 4.48387 9.55877L3.99839 11.594C3.91055 11.9622 3.83535 12.2774 3.79872 12.527C3.76403 12.7635 3.73786 13.0824 3.88556 13.3719C4.06962 13.7326 4.41503 13.9835 4.81495 14.0471C5.1359 14.0982 5.43115 13.9747 5.64528 13.8687C5.87138 13.7567 6.1479 13.5878 6.47094 13.3904L8.25655 12.2998C8.36367 12.2344 8.42122 12.1995 8.46505 12.1763C8.47826 12.1693 8.4868 12.1653 8.49158 12.1632C8.49704 12.1625 8.50256 12.1625 8.50802 12.1632C8.5128 12.1653 8.52134 12.1693 8.53455 12.1763C8.57838 12.1995 8.63593 12.2344 8.74305 12.2998L10.5287 13.3905C10.8517 13.5878 11.1282 13.7567 11.3543 13.8687C11.5684 13.9747 11.8637 14.0982 12.1846 14.0471C12.5846 13.9835 12.93 13.7326 13.114 13.3719C13.2617 13.0824 13.2356 12.7635 13.2009 12.527C13.1642 12.2774 13.0891 11.9622 13.0012 11.594L12.5157 9.55877C12.4866 9.43667 12.4712 9.37117 12.4627 9.32232C12.4602 9.3076 12.459 9.29823 12.4584 9.29302C12.4595 9.28762 12.4612 9.28237 12.4635 9.27739C12.467 9.27351 12.4735 9.26663 12.4842 9.25622C12.5198 9.2217 12.5707 9.17774 12.6661 9.09608L14.2551 7.73489C14.5426 7.48863 14.7887 7.27784 14.9651 7.09742C15.1321 6.92654 15.3407 6.68388 15.3914 6.36288C15.4545 5.96288 15.3226 5.55682 15.0364 5.27031C14.8067 5.04039 14.4953 4.96671 14.2597 4.92664C14.011 4.88434 13.688 4.85846 13.3107 4.82822L11.225 4.66102C11.0999 4.65099 11.0329 4.64535 10.9838 4.63834C10.969 4.63623 10.9597 4.63447 10.9546 4.63339C10.9498 4.63073 10.9453 4.62749 10.9413 4.62373C10.9387 4.61919 10.9341 4.6109 10.9276 4.59749C10.9057 4.55297 10.8796 4.49096 10.8314 4.37506L10.0279 2.44315C9.88256 2.09363 9.75813 1.79444 9.64104 1.57095C9.53014 1.35929 9.36383 1.08587 9.07419 0.938504Z" fill="currentColor"/>
</svg>
