<svg width="100%" height="20" viewBox="0 0 20 20" fill="none" xmlns="http://www.w3.org/2000/svg">
<mask id="mask0_1076_23476" style="mask-type:alpha" maskUnits="userSpaceOnUse" x="0" y="0" width="20" height="20">
<rect width="20" height="20" fill="#D9D9D9"/>
</mask>
<g mask="url(#mask0_1076_23476)">
<path d="M9.12505 10.5833L7.91672 9.39581C7.76394 9.24303 7.57297 9.16664 7.3438 9.16664C7.11463 9.16664 6.91672 9.24998 6.75005 9.41664C6.59727 9.56942 6.52088 9.76387 6.52088 9.99998C6.52088 10.2361 6.59727 10.4305 6.75005 10.5833L8.54172 12.375C8.70838 12.5416 8.90283 12.625 9.12505 12.625C9.34727 12.625 9.54172 12.5416 9.70838 12.375L13.2501 8.83331C13.4167 8.66664 13.4966 8.4722 13.4896 8.24998C13.4827 8.02776 13.4028 7.83331 13.2501 7.66664C13.0834 7.49998 12.8855 7.41317 12.6563 7.40623C12.4271 7.39928 12.2292 7.47914 12.0626 7.64581L9.12505 10.5833ZM6.79172 18.125L5.58338 16.0833L3.29172 15.5833C3.08338 15.5416 2.91672 15.434 2.79172 15.2604C2.66672 15.0868 2.61811 14.8958 2.64588 14.6875L2.87505 12.3333L1.31255 10.5416C1.17366 10.3889 1.10422 10.2083 1.10422 9.99998C1.10422 9.79164 1.17366 9.61109 1.31255 9.45831L2.87505 7.66664L2.64588 5.31248C2.61811 5.10414 2.66672 4.91317 2.79172 4.73956C2.91672 4.56595 3.08338 4.45831 3.29172 4.41664L5.58338 3.91664L6.79172 1.87498C6.90283 1.69442 7.05561 1.57289 7.25005 1.51039C7.4445 1.44789 7.63894 1.45831 7.83338 1.54164L10.0001 2.45831L12.1667 1.54164C12.3612 1.45831 12.5556 1.44789 12.7501 1.51039C12.9445 1.57289 13.0973 1.69442 13.2084 1.87498L14.4167 3.91664L16.7084 4.41664C16.9167 4.45831 17.0834 4.56595 17.2084 4.73956C17.3334 4.91317 17.382 5.10414 17.3542 5.31248L17.1251 7.66664L18.6876 9.45831C18.8264 9.61109 18.8959 9.79164 18.8959 9.99998C18.8959 10.2083 18.8264 10.3889 18.6876 10.5416L17.1251 12.3333L17.3542 14.6875C17.382 14.8958 17.3334 15.0868 17.2084 15.2604C17.0834 15.434 16.9167 15.5416 16.7084 15.5833L14.4167 16.0833L13.2084 18.125C13.0973 18.3055 12.9445 18.4271 12.7501 18.4896C12.5556 18.5521 12.3612 18.5416 12.1667 18.4583L10.0001 17.5416L7.83338 18.4583C7.63894 18.5416 7.4445 18.5521 7.25005 18.4896C7.05561 18.4271 6.90283 18.3055 6.79172 18.125Z" fill="#0077FF"/>
</g>
</svg>
